<?xml version="1.0" standalone="no"?>
<!DOCTYPE svg PUBLIC "-//W3C//DTD SVG 20010904//EN"
 "http://www.w3.org/TR/2001/REC-SVG-20010904/DTD/svg10.dtd">
<svg version="1.0" xmlns="http://www.w3.org/2000/svg"
 width="1280.000000pt" height="1280.000000pt" viewBox="0 0 1280.000000 1280.000000"
 preserveAspectRatio="xMidYMid meet">
<metadata>
Created by potrace 1.15, written by Peter Selinger 2001-2017
</metadata>
<g transform="translate(0.000000,1280.000000) scale(0.100000,-0.100000)"
fill="#000000" stroke="none">
<path d="M6995 12168 c-122 -38 -196 -83 -267 -162 -38 -41 -68 -79 -68 -84 0
-5 -7 -16 -16 -23 -21 -17 -68 -121 -100 -218 -22 -68 -24 -83 -15 -141 5 -36
12 -92 16 -125 9 -96 45 -225 81 -296 19 -36 34 -74 35 -85 0 -10 22 -53 49
-94 28 -41 58 -91 69 -111 11 -19 27 -41 35 -48 9 -8 16 -17 16 -22 0 -5 23
-42 50 -83 28 -41 50 -78 50 -82 0 -4 8 -16 17 -26 23 -26 8 -34 -71 -43 -136
-15 -371 -82 -479 -136 -71 -36 -102 -65 -240 -222 -264 -301 -288 -320 -474
-373 -136 -39 -157 -51 -173 -99 -13 -40 -17 -41 -67 -20 -19 8 -60 15 -90 15
-52 0 -87 -3 -368 -35 -71 -8 -204 -19 -295 -25 -91 -6 -192 -15 -225 -21
-218 -39 -412 -59 -593 -59 -188 0 -262 14 -345 65 -257 159 -379 225 -416
225 -53 0 7 -125 89 -185 28 -21 49 -39 46 -42 -2 -3 -53 -11 -113 -18 -334
-43 -473 -69 -509 -98 l-27 -21 34 -28 33 -28 181 -1 c129 -1 164 -4 125 -9
-30 -5 -83 -8 -116 -9 -70 -1 -181 -32 -214 -59 -23 -18 -23 -19 -4 -48 26
-40 33 -44 84 -44 43 0 44 -1 20 -13 -28 -14 -39 -57 -18 -75 19 -16 307 -88
401 -101 134 -19 344 -14 416 9 34 10 74 21 89 22 l27 3 9 -116 9 -116 171
-14 c94 -7 281 -14 416 -14 234 0 300 5 540 40 164 24 475 60 640 75 208 18
483 47 529 56 l31 7 0 -133 c0 -216 -19 -664 -36 -825 -8 -82 -19 -197 -24
-255 -5 -58 -14 -148 -19 -200 -6 -52 -15 -149 -21 -215 -6 -66 -15 -156 -20
-200 -10 -83 -28 -262 -55 -545 -44 -455 -71 -690 -87 -770 -26 -131 -18 -195
26 -206 54 -13 310 108 474 225 151 107 216 151 218 148 2 -1 -1 -38 -5 -82
-8 -83 11 -309 44 -520 9 -55 20 -134 26 -175 12 -91 19 -144 58 -420 81 -573
111 -703 247 -1070 33 -89 37 -180 14 -332 -12 -83 -12 -119 -1 -235 7 -76 17
-250 22 -388 4 -137 11 -270 14 -295 3 -25 14 -99 23 -165 12 -84 17 -184 17
-335 -1 -187 -4 -225 -22 -293 -27 -100 -72 -175 -152 -255 -139 -138 -305
-233 -511 -292 -92 -26 -157 -50 -178 -67 -42 -31 -105 -158 -100 -199 4 -39
49 -67 150 -94 151 -42 202 -49 325 -50 135 0 196 11 354 66 189 64 243 86
303 122 l59 35 19 -26 c17 -23 27 -27 66 -27 115 1 219 41 305 119 67 61 72
80 73 306 0 230 19 701 34 855 6 58 15 159 20 225 6 66 14 154 19 195 5 41 15
127 21 190 6 63 15 151 21 195 16 141 45 530 59 815 8 163 21 240 40 240 5 0
10 -24 13 -52 2 -29 10 -107 17 -174 12 -102 12 -133 0 -194 -11 -61 -11 -77
0 -104 8 -17 13 -53 11 -81 -2 -27 -4 -349 -5 -715 -3 -574 -5 -675 -19 -740
-26 -117 -38 -239 -28 -297 5 -34 3 -83 -5 -140 -19 -125 -18 -160 15 -344 16
-90 37 -220 46 -289 21 -151 42 -205 104 -263 70 -66 143 -91 266 -91 204 -2
278 68 278 259 0 111 -18 175 -85 308 -28 55 -68 154 -89 219 -21 66 -48 131
-59 145 -29 37 -25 48 20 68 76 34 127 113 150 230 11 59 42 193 140 600 27
110 53 229 60 265 6 36 16 84 21 107 13 59 43 276 75 538 41 346 63 458 177
905 67 262 92 400 102 575 13 226 27 384 40 446 29 138 87 261 202 431 39 59
79 131 89 160 11 37 19 114 25 248 4 107 12 215 18 240 19 91 23 236 9 410 -7
96 -13 236 -13 310 0 127 2 139 26 186 34 65 103 155 193 251 307 330 411 502
468 773 28 139 8 401 -47 615 -27 102 -44 148 -145 384 -78 184 -122 311 -166
481 -44 167 -66 232 -114 337 -48 104 -87 161 -169 247 -117 121 -211 178
-406 246 -115 39 -123 40 -319 51 -186 10 -210 14 -321 48 -108 33 -123 40
-160 80 -111 120 -166 170 -209 187 -44 18 -46 21 -46 59 0 22 -5 69 -11 105
-5 36 -11 123 -13 195 -3 140 -25 225 -70 270 -12 12 -26 46 -33 79 -24 111
-88 217 -203 335 -44 45 -80 85 -80 89 0 10 -116 65 -194 92 -81 28 -292 27
-381 -2z"/>
</g>
</svg>
