<?xml version="1.0" standalone="no"?>
<!DOCTYPE svg PUBLIC "-//W3C//DTD SVG 20010904//EN"
 "http://www.w3.org/TR/2001/REC-SVG-20010904/DTD/svg10.dtd">
<svg version="1.0" xmlns="http://www.w3.org/2000/svg"
 width="696.000000pt" height="1280.000000pt" viewBox="0 0 696.000000 1280.000000"
 preserveAspectRatio="xMidYMid meet">
<metadata>
Created by potrace 1.15, written by Peter Selinger 2001-2017
</metadata>
<g transform="translate(0.000000,1280.000000) scale(0.100000,-0.100000)"
fill="#000000" stroke="none">
<path d="M3141 12784 c-87 -23 -160 -71 -253 -165 -71 -72 -216 -267 -230
-310 -2 -5 -143 -25 -313 -45 -170 -19 -312 -38 -316 -42 -12 -14 -72 -182
-66 -188 3 -3 122 -56 264 -118 l258 -112 3 -292 c1 -161 -1 -292 -5 -292 -4
0 -81 34 -170 77 -90 42 -165 74 -167 72 -2 -2 7 -155 20 -339 13 -184 22
-335 21 -336 -195 -159 -886 -752 -894 -767 -6 -12 -19 -79 -27 -150 -23 -175
-80 -398 -182 -698 -245 -725 -302 -916 -311 -1055 -6 -76 6 -110 67 -199 42
-60 198 -210 350 -335 148 -122 207 -176 221 -202 52 -96 97 -687 106 -1403 4
-412 3 -498 -11 -605 -32 -236 -128 -642 -335 -1413 -67 -247 -144 -540 -172
-650 -27 -111 -61 -238 -75 -282 -91 -293 -331 -852 -624 -1453 l-128 -262 26
-6 c78 -17 77 -16 74 -75 -5 -89 -41 -204 -124 -398 -44 -101 -90 -217 -103
-257 -33 -96 -50 -239 -41 -337 l8 -77 1131 2 1131 3 29 85 c50 149 69 262 65
385 -3 95 -8 117 -30 161 -51 98 -143 148 -268 147 -51 -1 -99 -13 -220 -54
-148 -51 -160 -53 -255 -53 -69 0 -114 6 -144 17 -53 21 -131 82 -131 104 0 8
18 35 40 60 22 25 45 64 52 87 6 23 13 43 14 45 2 2 41 -17 87 -43 l84 -45 67
217 c297 958 453 1453 546 1732 108 325 594 1710 609 1737 9 17 156 -162 396
-482 408 -545 560 -805 635 -1085 87 -323 279 -941 535 -1726 l145 -442 90 23
90 23 4 -22 c5 -21 66 -894 66 -929 0 -16 23 -17 398 -14 l397 2 370 151 c397
162 683 267 862 318 l111 31 19 60 c28 91 25 239 -6 334 -46 139 -162 280
-257 311 -57 19 -118 6 -269 -58 -162 -69 -240 -91 -346 -99 -94 -7 -119 -1
-163 38 -32 28 -146 195 -146 215 0 4 20 26 44 48 l45 41 -500 1175 -499 1174
-144 456 c-195 614 -318 1013 -371 1205 -52 186 -107 352 -275 820 -200 559
-301 897 -349 1161 -21 117 -46 362 -38 370 3 3 45 -18 93 -46 100 -57 221
-106 296 -120 72 -14 181 -12 201 3 35 26 101 190 234 582 136 402 134 397
152 390 19 -8 272 -90 661 -216 157 -50 290 -94 297 -96 6 -3 14 10 18 29 13
58 142 510 195 684 113 367 256 757 333 910 140 277 354 458 566 480 58 7 76
16 49 27 -7 3 -296 125 -643 272 -346 147 -635 268 -641 268 -26 1 -181 -129
-324 -273 -161 -161 -254 -280 -330 -423 -25 -46 -51 -82 -64 -87 -11 -4 -43
-16 -71 -25 -100 -35 -160 -128 -189 -294 -9 -55 -20 -85 -36 -101 -40 -40
-122 -245 -295 -740 -65 -184 -120 -340 -124 -347 -4 -8 -22 -6 -66 9 -224 75
-336 284 -364 678 -14 190 -14 377 -1 385 6 4 73 8 148 9 83 2 146 8 160 15
21 11 21 14 8 39 -8 15 -69 88 -136 162 -148 164 -168 193 -210 312 -18 51
-69 163 -112 249 l-78 155 131 130 c223 219 346 380 430 559 35 74 43 85 65
85 49 0 176 -51 366 -147 106 -54 196 -99 199 -101 3 -1 16 58 29 131 l23 134
-49 45 c-27 25 -130 118 -229 207 -99 89 -180 168 -180 174 0 7 6 72 14 145
22 211 5 394 -42 464 -63 93 -308 215 -567 282 -183 47 -337 58 -439 30z"/>
</g>
</svg>
